# xmcd CD database file
#
# Track frame offsets:
#	150
#	13662
#	28658
#	44144
#	70751
#
# Disc length: 1150 seconds
#
# Revision: 0
# Processed by: cddbd v1.5.2PL0 Copyright (c) Steve Scherf et al.
# Submitted via: CDex 1.83
#
DISCID=3f047c05
DTITLE=Lester Young - My foolish things jazz collection
DYEAR=2018
DGENRE=Jazz
TTITLE0=Lester Young - These Foolish Things
TTITLE1=	 - Lester Leaps In
TTITLE2=	 - Blue Lester
TTITLE3=	 - Ad Lib Blues
TTITLE4=	 - These Foolish Things
EXTD=YEAR: 2018
EXTT0=
EXTT1=
EXTT2=
EXTT3=
EXTT4=
PLAYORDER=
